<svg width="54" height="54" viewBox="0 0 54 54" fill="none" xmlns="http://www.w3.org/2000/svg">
<rect width="54" height="54" rx="16" fill="black"/>
<mask id="mask0_635_105" style="mask-type:luminance" maskUnits="userSpaceOnUse" x="13" y="29" width="24" height="17">
<path d="M36.2431 29.4098C30.7875 35.7309 31.2595 51.9236 13.3379 43.3191C27.3309 41.1331 26.373 26.5834 36.2431 29.4098Z" fill="white"/>
</mask>
<g mask="url(#mask0_635_105)">
<path d="M36.2568 26.5834H13.3516V51.9376H36.2568V26.5834Z" fill="url(#paint0_linear_635_105)"/>
</g>
<path fill-rule="evenodd" clip-rule="evenodd" d="M13.3516 43.3191C20.001 42.2888 23.2633 38.4599 25.9286 35.0348C27.1363 35.8145 27.5528 36.9562 26.6088 38.5852C22.2638 46.1455 13.3516 43.3191 13.3516 43.3191Z" fill="#F26722"/>
<mask id="mask1_635_105" style="mask-type:luminance" maskUnits="userSpaceOnUse" x="13" y="28" width="24" height="15">
<path d="M36.243 29.4099C30.3015 34.4779 28.4552 49.5428 13.0879 39.0169C26.3452 38.989 27.5112 25.3861 36.243 29.4099Z" fill="white"/>
</mask>
<g mask="url(#mask1_635_105)">
<path d="M36.243 25.386H13.0879V49.5428H36.243V25.386Z" fill="url(#paint1_linear_635_105)"/>
</g>
<path fill-rule="evenodd" clip-rule="evenodd" d="M34.8258 30.8857C29.9116 36.8309 27.1768 48.6238 13.1699 39.0864C23.276 45.7835 27.7737 41.8293 33.1461 32.5147C33.5764 31.7768 33.9512 31.2616 34.2705 30.8996C34.451 30.8718 34.6453 30.8718 34.8258 30.8996" fill="#F6EB16"/>
<path fill-rule="evenodd" clip-rule="evenodd" d="M13.0879 39.0308C19.196 39.0169 22.7358 36.1208 25.6233 33.4058C26.2341 34.1438 26.3452 35.1184 25.6511 36.3854C22.2083 42.6508 13.0879 39.0447 13.0879 39.0447" fill="#F26722"/>
<path fill-rule="evenodd" clip-rule="evenodd" d="M18.627 38.084C22.3612 36.7334 24.8183 34.1577 27.0533 32.0413C29.6492 31.735 31.8148 31.8464 31.8148 31.8464C31.676 35.7588 23.916 41.342 18.627 38.084Z" fill="#301850"/>
<mask id="mask2_635_105" style="mask-type:luminance" maskUnits="userSpaceOnUse" x="13" y="27" width="24" height="12">
<path d="M36.2434 29.4098C29.7189 32.7096 24.7075 45.9785 13.0605 33.002C25.124 35.912 29.1914 23.7988 36.2434 29.4098Z" fill="white"/>
</mask>
<g mask="url(#mask2_635_105)">
<path d="M36.2571 23.8127H13.0742V45.9924H36.2571V23.8127Z" fill="url(#paint2_linear_635_105)"/>
</g>
<path fill-rule="evenodd" clip-rule="evenodd" d="M30.8559 33.8235C26.4137 38.0701 21.5828 42.1496 13.5312 33.5172C14.7529 34.7981 18.265 38.084 22.0964 38.2093C26.8579 38.3624 30.4117 33.4754 30.4117 33.4754L30.8559 33.8096V33.8235Z" fill="#F6EB16"/>
<path fill-rule="evenodd" clip-rule="evenodd" d="M13.0742 33.0159C20.3345 34.7703 24.7073 31.0806 28.5665 29.0757C29.8991 29.6605 30.0241 30.6212 27.8863 32.1249C19.918 37.7498 13.0742 33.002 13.0742 33.002" fill="#F26722"/>
<path fill-rule="evenodd" clip-rule="evenodd" d="M36.2419 29.4099C35.4367 30.3427 34.7704 31.4844 34.1457 32.7236C33.6737 33.183 33.174 33.6007 32.6326 33.9767H32.6048L32.5909 34.0045L32.5632 34.0184L32.5493 34.0324H32.5215L32.4938 34.0602L32.466 34.0741H32.4382V34.0881H32.4244L32.3966 34.1159L32.3827 34.1298H32.3549V34.1437L32.3272 34.1716L32.2994 34.1855H32.2717L32.2439 34.2134H32.2161L32.2022 34.2412L32.1745 34.2551H32.1467H32.119L32.0912 34.283H32.0773H32.0495V34.2969H32.0357L32.0079 34.3248H31.9801L31.9662 34.3526L31.9385 34.3665H31.9246H31.8968L31.8691 34.3944L31.8413 34.4083H31.8135H31.7858L31.758 34.4361H31.7441H31.7164L31.7025 34.464L31.6747 34.4779L31.6331 34.5058H31.6053V34.5197H31.5776L31.5359 34.5475H31.5081H31.4804H31.4526L31.4249 34.5754L31.3832 34.6032H31.3693H31.3416V34.6171L31.2999 34.645H31.2722L31.2444 34.6589H31.2027C30.6197 34.9095 30.0089 35.0627 29.3981 35.1044H29.3703H29.3426C29.3148 35.1044 29.287 35.1044 29.2731 35.1044H29.2593H29.2315H29.2037H29.1482H29.1204H29.0927H29.051H29.0094H28.9677H28.94H28.9122H28.8845H28.8706H28.8428H28.8289H28.815H28.7873H28.7734H28.7456H28.7318H28.704H28.6762H28.6485H28.6068H28.5652H28.5096H28.4958H28.4541H28.4263H28.3986H28.3708H28.3431H28.3292H28.3014H28.2875H28.2737H28.232H28.2042H28.1904H28.1626H28.1348H28.1071H28.0793H28.0377H27.996H27.9544H27.9266H27.8988H27.8711H27.8572H27.8294H27.8155H27.8017H27.7739H27.76H27.7323H27.7184H27.6906H27.6628H27.6351H27.6073H27.5657H27.524H27.4824L27.4546 35.0905H27.4269H27.3852H27.3436L27.3158 35.0766H27.3019H27.2741H27.2603H27.2464H27.2186H27.2047H27.177H27.1492H27.1214L27.0798 35.0488H27.052H27.0104H26.9687L26.9132 35.0209H26.8716L26.8577 35.007H26.8438H26.8022V34.9931H26.7466V34.9652H26.6911V34.9374H26.6772H26.6356V34.9234L26.5801 34.8956L26.5245 34.8678H26.5106H26.4968L26.4829 34.8538H26.469L26.4551 34.8399L26.4274 34.826H26.4135H26.3996L26.3857 34.8121H26.3718L26.3579 34.7981H26.3441H26.3302L26.3163 34.7842H26.3024L26.2885 34.7703H26.2746V34.7564H26.2608H26.2469L26.233 34.7424H26.2191H26.2052L26.1636 34.7146H26.1497L26.1358 34.7007H26.0942L26.0803 34.6728L26.0525 34.6589H26.0387L26.0248 34.645C25.0947 34.1716 24.2479 33.559 23.4844 32.835C29.1621 30.6073 32.6187 25.9708 37.519 29.8554" fill="#301850"/>
<mask id="mask3_635_105" style="mask-type:luminance" maskUnits="userSpaceOnUse" x="17" y="4" width="28" height="31">
<path d="M44.3352 29.1592C44.3352 29.1592 46.2232 26.7505 41.5588 24.6899C36.9084 22.6292 23.7899 16.3777 22.1102 4C18.3621 7.80103 17.1266 13.5792 17.6125 19.232C18.3621 28.0175 22.6932 34.1159 28.5792 34.464C35.3814 34.8677 37.2554 22.0584 44.3491 29.1453" fill="white"/>
</mask>
<g mask="url(#mask3_635_105)">
<path d="M46.2374 4H17.127V34.8817H46.2374V4Z" fill="url(#paint3_linear_635_105)"/>
</g>
<mask id="mask4_635_105" style="mask-type:luminance" maskUnits="userSpaceOnUse" x="40" y="20" width="6" height="10">
<path d="M44.3356 29.1592C47.223 25.0936 40.3653 23.6178 41.4759 20.123C37.6445 24.7177 44.28 25.1772 44.3356 29.1592Z" fill="white"/>
</mask>
<g mask="url(#mask4_635_105)">
<path d="M47.2231 20.123H37.6445V29.1592H47.2231V20.123Z" fill="url(#paint4_linear_635_105)"/>
</g>
<path fill-rule="evenodd" clip-rule="evenodd" d="M44.3358 29.1592C47.2233 25.0936 40.3656 23.6178 41.4762 20.123H41.4623C41.3096 20.3319 40.1435 21.9888 42.6006 24.2861C45.2104 26.7226 44.8772 28.2263 44.3358 29.1592Z" fill="#FDF166"/>
<path fill-rule="evenodd" clip-rule="evenodd" d="M41.4629 20.1509C37.6592 24.7177 44.2809 25.1911 44.3365 29.1592C44.864 25.4696 37.812 24.8848 41.4629 20.1509Z" fill="#FDF166"/>
<path fill-rule="evenodd" clip-rule="evenodd" d="M40.9485 24.4114C40.2822 24.1051 39.477 23.7292 38.6025 23.2836L18.2793 23.5064C18.6958 25.8594 19.8757 28.296 21.1945 30.0781C31.009 30.5794 40.9485 24.4114 40.9485 24.4114Z" fill="#741012"/>
<mask id="mask5_635_105" style="mask-type:luminance" maskUnits="userSpaceOnUse" x="13" y="7" width="28" height="19">
<path d="M40.9623 24.4253C40.9623 24.4253 17.1409 23.7988 16.891 7.71747C4.21678 26.4024 31.1755 26.5834 40.9623 24.4253Z" fill="white"/>
</mask>
<g mask="url(#mask5_635_105)">
<path d="M40.9623 7.71747H4.2168V26.5973H40.9623V7.71747Z" fill="url(#paint5_linear_635_105)"/>
</g>
<mask id="mask6_635_105" style="mask-type:luminance" maskUnits="userSpaceOnUse" x="10" y="13" width="31" height="17">
<path d="M40.9625 24.4253C40.9625 24.4253 16.0167 30.1338 11.4911 13.4678C3.25915 36.3018 31.3562 29.2984 40.9625 24.4253Z" fill="white"/>
</mask>
<g mask="url(#mask6_635_105)">
<path d="M40.9632 13.4678H3.25977V36.3018H40.9632V13.4678Z" fill="url(#paint6_linear_635_105)"/>
</g>
<path fill-rule="evenodd" clip-rule="evenodd" d="M10.7554 15.7929C5.2443 35.8006 31.7033 29.1174 40.9764 24.4253C34.091 27.753 25.9423 29.3124 19.8481 28.8807C11.4912 28.282 8.89525 22.9355 10.7554 15.7929ZM10.8387 15.5005C10.8387 15.5005 10.811 15.598 10.7971 15.6537C10.811 15.598 10.8248 15.5562 10.8387 15.5005Z" fill="#F6EB16"/>
<path fill-rule="evenodd" clip-rule="evenodd" d="M40.963 24.4253C40.963 24.4253 16.0171 30.1338 11.4916 13.4678C11.4916 13.4678 10.1312 21.1255 18.5298 24.4114C26.9283 27.6973 36.5624 25.929 40.9769 24.4253" fill="#FDF166"/>
<path fill-rule="evenodd" clip-rule="evenodd" d="M40.9633 24.4253C40.9633 24.4253 17.1418 23.7988 16.892 7.71747C11.1032 20.4293 31.0238 25.0797 40.4913 24.5367C40.6579 24.5088 40.8106 24.4671 40.9633 24.4392" fill="#F7F5BC"/>
<mask id="mask7_635_105" style="mask-type:luminance" maskUnits="userSpaceOnUse" x="17" y="4" width="24" height="21">
<path d="M22.1109 4C23.7351 15.8765 35.8818 22.1141 40.9765 24.4253C40.9765 24.4253 22.3747 23.9241 17.877 12.7298L17.9325 12.3957C18.5433 9.20728 19.8898 6.25556 22.1109 4Z" fill="white"/>
</mask>
<g mask="url(#mask7_635_105)">
<path d="M40.9629 4H17.8633V24.4253H40.9629V4Z" fill="url(#paint7_linear_635_105)"/>
</g>
<path fill-rule="evenodd" clip-rule="evenodd" d="M40.9486 24.4253C35.8539 22.1141 23.7072 15.8904 22.083 4C19.501 14.5956 31.9808 22.3786 40.9486 24.4253Z" fill="#FDF166"/>
<path fill-rule="evenodd" clip-rule="evenodd" d="M40.9629 24.4253C40.9629 24.4253 22.361 23.938 17.8633 12.7298C17.8772 12.6185 17.9049 12.5071 17.9188 12.4096C17.9188 12.4096 20.487 22.5875 40.949 24.4253" fill="#F6EB16"/>
<path fill-rule="evenodd" clip-rule="evenodd" d="M15.4476 10.0844C13.5041 13.6627 13.1848 16.4612 13.99 18.6333C17.752 23.576 24.2071 25.0797 29.857 25.3303C32.6751 25.4139 35.4653 25.2468 37.8114 24.9544C39.1579 24.7734 40.1436 24.5924 40.6294 24.4949C40.7405 24.4671 40.8515 24.4532 40.9626 24.4253C40.9626 24.4253 40.7821 24.4532 40.4628 24.481C32.0781 25.9847 23.0965 25.1493 17.3355 21.3622C12.9766 18.494 13.1987 14.5538 15.4476 10.0844Z" fill="#F6EB16"/>
<defs>
<linearGradient id="paint0_linear_635_105" x1="-4.6811" y1="47.2733" x2="40.0647" y2="35.1854" gradientUnits="userSpaceOnUse">
<stop stop-color="#E51C42"/>
<stop offset="1" stop-color="#4B2975"/>
</linearGradient>
<linearGradient id="paint1_linear_635_105" x1="8.06262" y1="41.9825" x2="48.7116" y2="30.9884" gradientUnits="userSpaceOnUse">
<stop stop-color="#E51C42"/>
<stop offset="1" stop-color="#4B2975"/>
</linearGradient>
<linearGradient id="paint2_linear_635_105" x1="8.46541" y1="33.5311" x2="58.5814" y2="37.7389" gradientUnits="userSpaceOnUse">
<stop stop-color="#E51C42"/>
<stop offset="1" stop-color="#4B2975"/>
</linearGradient>
<linearGradient id="paint3_linear_635_105" x1="14.3644" y1="24.1608" x2="57.5687" y2="12.4744" gradientUnits="userSpaceOnUse">
<stop stop-color="#E51C42"/>
<stop offset="1" stop-color="#F6EB16"/>
</linearGradient>
<linearGradient id="paint4_linear_635_105" x1="39.1993" y1="30.0642" x2="44.4696" y2="21.3064" gradientUnits="userSpaceOnUse">
<stop stop-color="#E51C42"/>
<stop offset="1" stop-color="#F6EB16"/>
</linearGradient>
<linearGradient id="paint5_linear_635_105" x1="47.6534" y1="42.1356" x2="5.95438" y2="0.809961" gradientUnits="userSpaceOnUse">
<stop stop-color="#E51C42"/>
<stop offset="1" stop-color="#F6EB16"/>
</linearGradient>
<linearGradient id="paint6_linear_635_105" x1="43.3092" y1="46.0202" x2="-5.53229" y2="-2.38509" gradientUnits="userSpaceOnUse">
<stop stop-color="#E51C42"/>
<stop offset="1" stop-color="#F6EB16"/>
</linearGradient>
<linearGradient id="paint7_linear_635_105" x1="43.9058" y1="39.2118" x2="20.7595" y2="-0.479287" gradientUnits="userSpaceOnUse">
<stop stop-color="#E51C42"/>
<stop offset="1" stop-color="#F6EB16"/>
</linearGradient>
</defs>
</svg>
